<svg xmlns="http://www.w3.org/2000/svg" version="1.1" xmlns:xlink="http://www.w3.org/1999/xlink" xmlns:svgjs="http://svgjs.com/svgjs" width="1920" height="1080" preserveAspectRatio="none" viewBox="0 0 1920 1080"><g mask="url(&quot;#SvgjsMask2111&quot;)" fill="none"><rect width="1920" height="1080" x="0" y="0" fill="rgba(68, 8, 41, 1)"></rect><path d="M0 74.77C78.45 24.34 151.12 122.19 270 96.43C323.62 84.81 293 18.57 345 0C428 -29.64 442.5 0 540 0C675 0 675 0 810 0C945 0 945 0 1080 0C1215 0 1215 0 1350 0C1485 0 1485 0 1620 0C1670.63 0 1675.93 -18.13 1721.25 0C1810.93 35.87 1813.51 108 1890 108C1944.44 108 1922.85 24.1 1983.1 0C2057.85 -29.9 2117.35 -45.8 2160 0C2205.8 49.2 2188.47 108.15 2160 190C2141.51 243.15 2066.09 239.33 2066.09 270C2066.09 294.54 2146.3 261.03 2160 300.42C2193.25 396.03 2160 420.21 2160 540C2160 675 2160 675 2160 810C2160 945 2227.5 1012.5 2160 1080C2092.5 1147.5 2025 1080 1890 1080C1755 1080 1755 1080 1620 1080C1485 1080 1485 1080 1350 1080C1215 1080 1215 1080 1080 1080C945 1080 945 1080 810 1080C675 1080 675 1080 540 1080C405 1080 405 1080 270 1080C160.31 1080 157.07 1091.83 50.63 1080C22.07 1076.83 4.99 1076.58 0 1050C-20.33 941.58 0 930 0 810C0 675 0 675 0 540C0 405 0 405 0 270C0 172.38 -56.55 111.12 0 74.77" stroke="rgba(116, 0, 56, 0.58)" stroke-width="2"></path><path d="M810 441.82C779.13 441.82 738 492.37 738 540C738 583 778.66 623.08 810 623.08C836.85 623.08 854.38 582.27 854.38 540C854.38 491.64 837.32 441.82 810 441.82" stroke="rgba(116, 0, 56, 0.58)" stroke-width="2"></path><path d="M270 681.75C235.16 681.75 193.43 746.89 193.43 810C193.43 868.02 234.97 924 270 924C302.74 924 328.97 867.68 328.97 810C328.97 746.56 302.93 681.75 270 681.75" stroke="rgba(116, 0, 56, 0.58)" stroke-width="2"></path><path d="M1620 630C1560.59 630 1542.86 727.89 1542.86 810C1542.86 854.71 1573.52 883.64 1620 883.64C1716.6 883.64 1829.03 866.5 1829.03 810C1829.03 739.68 1703.68 630 1620 630" stroke="rgba(116, 0, 56, 0.58)" stroke-width="2"></path><path d="M0 178.62C72.77 178.62 149.86 188.47 204.83 270C271.69 369.16 269.93 413.48 243.66 540C213.86 683.48 175.15 679.71 92.69 810C53.32 872.21 26.06 925 0 925C-20.29 925 0 867.5 0 810C0 675 0 675 0 540C0 405 0 405 0 270C0 224.31 -29.65 178.62 0 178.62" stroke="rgba(116, 0, 56, 0.58)" stroke-width="2"></path><path d="M441.82 270C485.15 134.36 484.67 131.54 532.5 0C533.76 -3.46 536.25 0 540 0C675 0 675 0 810 0C921.52 0 1033.04 -49.19 1033.04 0C1033.04 72.95 936.48 148.91 810 244.29C757.46 283.91 711.23 221.75 675 270C600.23 369.6 557.25 420.14 588 540C624.75 683.22 713.37 796.15 810 796.15C892.79 796.15 877.76 667.72 946.85 540C1012.76 418.14 1006.7 297 1080 297C1158.54 297 1159.2 423.55 1250.53 540C1294.2 595.68 1306.36 585.67 1350 641.25C1412.35 720.67 1397.4 733.06 1462.5 810C1532.4 892.6 1524.71 931.06 1620 960.34C1738.46 996.74 1769.33 907.8 1890 941.35C1984.49 967.63 2050.31 1040.53 2050.31 1080C2050.31 1109.85 1970.15 1080 1890 1080C1755 1080 1755 1080 1620 1080C1530.76 1080 1518.58 1108.02 1441.53 1080C1383.58 1058.93 1402.68 981.82 1350 981.82C1275.1 981.82 1273.05 1048.48 1186.36 1080C1138.05 1097.57 1133.18 1080 1080 1080C976.76 1080 943.68 1126.77 873.53 1080C808.68 1036.77 839.02 900 810 900C781.54 900 820.85 1038.48 758.57 1080C685.85 1128.48 649.29 1080 540 1080C405 1080 405 1080 270 1080C265.78 1080 261.56 1081.35 261.56 1080C261.56 1078.35 267.56 1078.55 270 1074C340.05 943.55 383.13 948.93 406.55 810C428.13 681.93 351.31 673.02 360 540C368.95 403.02 398.9 404.36 441.82 270" stroke="rgba(116, 0, 56, 0.58)" stroke-width="2"></path><path d="M1350 163.64C1255.69 79.48 1157.14 46.42 1157.14 0C1157.14 -35.4 1253.57 0 1350 0C1419.23 0 1431.29 -28.59 1488.46 0C1566.29 38.91 1549.28 73.09 1620 135C1703.5 208.09 1707.89 203.25 1796.9 270C1842.89 304.5 1836.63 319.05 1890 337.5C2018.18 381.8 2071.38 329.02 2160 395.49C2206.38 430.27 2160 467.75 2160 540C2160 628.45 2213.42 683.51 2160 716.9C2078.42 767.89 2008.37 754.43 1890 708.75C1779.18 665.98 1789.26 630.36 1701.63 540C1654.26 491.14 1665.51 481.1 1620 430.31C1544.54 346.1 1540.34 349.65 1459.69 270C1405.34 216.32 1406.97 214.48 1350 163.64" stroke="rgba(116, 0, 56, 0.58)" stroke-width="2"></path><path d="M810 83.57C764.84 83.57 715.14 23.87 715.14 0C715.14 -17.91 762.57 0 810 0C848.15 0 886.3 -16.83 886.3 0C886.3 24.96 850.42 83.57 810 83.57" stroke="rgba(116, 0, 56, 0.58)" stroke-width="2"></path><path d="M0 324C20.38 324 79.02 431.57 79.02 540C79.02 655.29 20.3 771.43 0 771.43C-19.21 771.43 0 655.71 0 540C0 432 -19.13 324 0 324" stroke="rgba(116, 0, 56, 0.58)" stroke-width="2"></path><path d="M1039.32 540C1039.32 502.32 1057.6 465.75 1080 465.75C1104 465.75 1132.11 502.08 1132.11 540C1132.11 581.63 1103.85 624.86 1080 624.86C1057.46 624.86 1039.32 581.88 1039.32 540" stroke="rgba(116, 0, 56, 0.58)" stroke-width="2"></path><path d="M1858.6 540C1858.6 523.84 1868.05 509.85 1890 506.25C2018.75 485.13 2045.86 476.29 2160 490.56C2180.86 493.17 2160 515.28 2160 540C2160 570.26 2184.58 597.96 2160 600.52C2049.58 612.02 2020.47 594.33 1890 568.13C1869.77 564.07 1858.6 554.78 1858.6 540" stroke="rgba(116, 0, 56, 0.58)" stroke-width="2"></path><path d="M484.14 810C484.14 739.28 500.72 671.14 540 671.14C587.92 671.14 658.54 736.37 658.54 810C658.54 899.26 586.35 996.92 540 996.92C499.15 996.92 484.14 902.17 484.14 810" stroke="rgba(116, 0, 56, 0.58)" stroke-width="2"></path><path d="M1270.59 810C1270.59 785.74 1315.65 761.79 1350 761.79C1371.42 761.79 1382.14 785.83 1382.14 810C1382.14 834.48 1371.53 859.09 1350 859.09C1315.75 859.09 1270.59 834.39 1270.59 810" stroke="rgba(116, 0, 56, 0.58)" stroke-width="2"></path><path d="M1555.93 1080C1555.93 1068.27 1583.98 1037.05 1620 1037.05C1710.51 1037.05 1809 1069.13 1809 1080C1809 1090.6 1714.5 1080 1620 1080C1587.97 1080 1555.93 1089.74 1555.93 1080" stroke="rgba(116, 0, 56, 0.58)" stroke-width="2"></path></g><defs><mask id="SvgjsMask2111"><rect width="1920" height="1080" fill="#ffffff"></rect></mask></defs></svg>